<?xml version="1.0" standalone="no"?>
<!DOCTYPE svg PUBLIC "-//W3C//DTD SVG 20010904//EN"
 "http://www.w3.org/TR/2001/REC-SVG-20010904/DTD/svg10.dtd">
<svg version="1.0" xmlns="http://www.w3.org/2000/svg"
 width="500.000000pt" height="500.000000pt" viewBox="0 0 500.000000 500.000000"
 preserveAspectRatio="xMidYMid meet">

<g transform="translate(0.000000,500.000000) scale(0.100000,-0.100000)"
fill="#000000" stroke="none">
<path d="M2265 4695 c-520 -60 -959 -270 -1325 -635 -419 -417 -650 -967 -650
-1548 0 -617 233 -1172 671 -1599 174 -170 348 -292 571 -403 424 -210 937
-275 1398 -179 500 105 925 360 1261 755 317 374 509 896 509 1390 0 778 -384
1480 -1040 1898 -168 107 -422 215 -629 266 -245 61 -535 82 -766 55z m540
-91 c972 -149 1715 -938 1804 -1914 33 -355 -20 -700 -154 -1015 -59 -137 -75
-168 -141 -278 -389 -638 -1077 -1027 -1819 -1027 -1012 0 -1886 717 -2084
1710 -72 362 -49 746 66 1090 46 139 165 381 246 503 342 508 867 842 1467
931 58 9 132 18 165 20 104 6 346 -4 450 -20z"/>
<path d="M2460 4235 l0 -165 35 0 35 0 0 165 0 165 -35 0 -35 0 0 -165z"/>
<path d="M2637 4373 c-7 -37 -2 -43 39 -43 32 0 34 -2 34 -32 0 -18 -7 -75
-15 -127 -8 -52 -12 -98 -9 -103 3 -4 18 -8 34 -8 33 0 33 0 50 125 18 133 15
128 60 123 41 -4 50 4 50 41 0 15 -15 20 -87 30 -49 6 -102 14 -119 17 -28 5
-32 3 -37 -23z"/>
<path d="M2145 4373 c-11 -3 -23 -8 -27 -11 -4 -4 4 -52 17 -107 l23 -100 -82
89 c-81 88 -82 89 -119 82 -20 -4 -38 -10 -41 -14 -3 -5 12 -75 33 -157 l38
-150 33 3 c19 1 35 4 36 5 2 2 -8 45 -21 97 -13 52 -23 96 -21 98 2 1 38 -35
80 -81 l77 -85 40 10 c23 6 39 16 39 25 0 8 -13 67 -29 131 -16 64 -32 129
-35 145 -4 15 -10 26 -14 26 -4 -1 -16 -3 -27 -6z"/>
<path d="M3081 4144 c-34 -80 -60 -149 -57 -152 4 -3 48 -23 98 -44 86 -36 94
-37 105 -21 22 29 15 39 -52 68 -36 15 -65 29 -65 32 0 2 7 17 15 33 l15 29
55 -24 c53 -24 55 -24 65 -5 16 30 13 35 -44 59 -54 22 -54 23 -44 52 5 16 14
29 18 29 5 0 36 -12 70 -26 33 -15 63 -24 66 -22 3 3 6 18 7 32 2 24 -5 30
-76 61 -43 19 -86 36 -96 40 -15 4 -28 -18 -80 -141z"/>
<path d="M1665 4208 c-38 -18 -71 -33 -73 -34 -3 -2 126 -284 133 -292 2 -2
51 16 63 24 2 1 -6 24 -17 49 -12 26 -21 51 -21 56 0 19 39 7 85 -25 42 -30
51 -33 74 -23 44 18 43 22 -14 61 -55 39 -63 50 -45 61 6 3 10 24 10 47 0 32
-7 47 -34 74 -43 43 -70 43 -161 2z m113 -50 c22 -22 14 -57 -18 -73 -41 -21
-45 -20 -62 25 -16 39 -16 39 11 49 36 13 55 13 69 -1z"/>
<path d="M3395 3998 l-138 -102 28 -22 28 -22 33 25 33 25 41 -29 c41 -28 41
-29 25 -88 -5 -15 2 -25 25 -38 23 -14 31 -15 35 -5 2 7 22 82 44 165 l39 153
-27 20 -28 19 -138 -101z m99 -45 c-8 -25 -15 -48 -17 -49 -1 -1 -13 6 -27 16
l-25 19 35 30 c19 17 38 30 42 31 3 0 0 -21 -8 -47z"/>
<path d="M1374 4032 l-21 -18 47 -157 c26 -87 50 -160 53 -163 3 -3 17 2 31
13 26 18 26 22 10 79 -4 16 4 27 35 48 l40 28 30 -22 c31 -21 41 -20 73 8 16
14 6 23 -119 108 -76 52 -142 94 -148 94 -5 -1 -20 -9 -31 -18z m113 -110 l33
-24 -26 -20 c-14 -11 -26 -19 -28 -17 -2 2 -10 25 -19 52 -17 51 -16 51 40 9z"/>
<path d="M3699 3861 c-36 -37 -37 -69 -3 -131 28 -52 29 -83 1 -88 -29 -6 -59
27 -52 58 4 20 -1 32 -20 50 -26 25 -27 25 -42 5 -10 -14 -13 -34 -10 -65 7
-61 68 -120 124 -120 47 0 76 19 93 60 12 28 10 36 -19 93 -33 65 -33 97 -2
97 25 0 41 -20 41 -50 0 -35 45 -79 62 -62 18 18 15 85 -5 116 -23 35 -75 66
-110 66 -18 0 -39 -11 -58 -29z"/>
<path d="M1111 3798 l-73 -77 83 -79 c46 -43 100 -93 120 -110 l36 -32 72 74
c39 41 71 78 71 83 0 6 -9 18 -20 28 -19 17 -21 16 -69 -36 l-49 -54 -26 24
-25 24 39 47 40 47 -21 19 c-21 19 -22 19 -58 -23 -41 -49 -50 -51 -76 -23
-17 19 -17 21 29 69 25 28 46 54 46 59 0 6 -10 16 -22 24 -22 13 -26 10 -97
-64z"/>
<path d="M2265 3771 c-394 -71 -739 -331 -925 -699 -147 -293 -171 -656 -65
-979 65 -196 159 -347 310 -498 156 -156 323 -259 525 -323 150 -47 214 -55
425 -50 163 4 203 8 285 30 217 59 396 159 559 314 166 159 272 323 340 527
48 144 62 234 62 408 0 231 -37 391 -134 584 -183 366 -545 630 -946 690 -128
20 -312 18 -436 -4z m535 -95 c460 -129 787 -475 886 -936 24 -114 25 -373 1
-478 -55 -239 -156 -428 -321 -601 -372 -387 -961 -481 -1438 -229 -291 155
-520 446 -605 768 -26 98 -28 118 -27 305 0 185 2 208 27 298 60 224 150 379
317 547 124 125 194 177 335 245 186 89 315 115 550 111 157 -3 192 -7 275
-30z"/>
<path d="M2550 3039 c-195 -21 -370 -100 -495 -224 -96 -96 -145 -182 -182
-322 -22 -85 -26 -120 -27 -258 -1 -142 8 -245 19 -233 3 2 9 46 15 98 38 336
181 569 424 691 95 48 214 84 319 98 115 16 157 13 73 -6 -86 -18 -216 -69
-293 -114 -137 -81 -299 -278 -372 -453 -52 -125 -53 -118 31 -145 123 -40
189 -52 288 -52 222 -1 352 92 501 356 34 61 87 155 118 209 33 58 84 129 124
172 43 46 67 80 65 91 -6 30 -172 76 -337 92 -115 12 -161 12 -271 0z m253
-136 c-7 -2 -19 -2 -25 0 -7 3 -2 5 12 5 14 0 19 -2 13 -5z"/>
<path d="M3931 3581 c-40 -75 -64 -107 -97 -131 -24 -17 -44 -35 -44 -40 0 -4
8 -18 18 -30 l19 -23 44 30 c35 24 62 33 134 42 50 7 102 15 118 17 l27 6 -17
29 c-19 32 -25 33 -107 18 -32 -6 -60 -8 -62 -6 -3 2 12 32 32 67 36 60 37 63
22 88 -9 15 -20 28 -25 29 -4 1 -32 -42 -62 -96z"/>
<path d="M877 3490 l-18 -29 135 -90 134 -90 56 85 c31 47 54 89 51 94 -3 6
-15 15 -25 20 -17 9 -24 3 -56 -44 -42 -64 -29 -66 -166 26 -48 32 -89 58 -90
58 -2 0 -12 -13 -21 -30z"/>
<path d="M1316 1219 c-32 -50 -56 -92 -54 -94 2 -1 29 -19 60 -39 54 -34 58
-35 68 -17 8 16 5 23 -25 41 -19 12 -35 26 -35 31 0 5 16 33 35 64 48 74 50
82 27 94 -17 9 -26 0 -76 -80z"/>
<path d="M3741 1301 c-10 -7 -12 -22 -7 -61 7 -56 8 -56 -47 -17 -24 16 -33
18 -55 8 -25 -12 -25 -12 43 -54 39 -24 76 -55 88 -74 16 -27 22 -31 38 -23
23 13 23 12 -1 57 -11 22 -20 57 -20 83 0 49 -9 90 -19 90 -3 0 -12 -4 -20 -9z"/>
<path d="M1495 1110 c-25 -49 -45 -92 -45 -95 0 -10 121 -66 130 -60 21 13 8
35 -30 55 -35 18 -39 23 -30 40 10 19 13 19 40 5 37 -19 46 -19 54 0 4 11 -5
21 -29 32 -38 18 -39 21 -26 42 8 13 15 12 49 -3 40 -18 62 -16 62 8 0 11 -99
66 -120 66 -5 0 -30 -40 -55 -90z"/>
<path d="M3485 1158 c-44 -24 -58 -67 -32 -102 11 -15 26 -18 70 -17 61 1 76
-9 51 -33 -12 -12 -20 -13 -35 -6 -13 8 -25 7 -40 0 -20 -11 -20 -12 -3 -31
24 -26 77 -25 108 4 36 32 40 59 15 91 -21 26 -25 28 -75 21 -49 -6 -54 -5
-54 13 0 23 18 33 40 22 9 -5 26 -3 39 4 l24 13 -24 17 c-27 18 -55 20 -84 4z"/>
<path d="M1721 1003 c-70 -84 -72 -88 -51 -97 18 -8 25 -6 39 12 15 20 19 21
49 10 25 -10 32 -18 32 -39 0 -24 25 -47 38 -35 10 11 15 226 4 226 -6 0 -17
2 -24 5 -10 4 -41 -26 -87 -82z m65 -40 c-3 -3 -12 -3 -21 1 -14 5 -14 8 2 30
l18 24 3 -25 c2 -14 1 -27 -2 -30z"/>
<path d="M3273 1069 c-22 -8 -23 -13 -23 -123 l0 -115 23 8 c13 5 24 19 27 36
7 41 56 57 79 26 17 -22 51 -21 51 1 0 7 -92 128 -129 169 -3 4 -16 3 -28 -2z
m43 -85 c15 -22 15 -27 3 -34 -15 -10 -27 9 -28 43 -1 24 6 21 25 -9z"/>
<path d="M1951 993 c-31 -120 -42 -166 -39 -168 2 -2 12 -5 22 -7 15 -2 22 5
29 30 14 45 33 40 46 -12 9 -35 16 -45 36 -49 21 -3 25 -1 20 12 -20 50 -17
71 9 92 29 22 35 64 14 92 -13 16 -87 47 -114 47 -7 0 -18 -17 -23 -37z m80
-23 c10 -6 19 -20 19 -30 0 -16 -7 -20 -30 -20 -25 0 -30 4 -30 23 0 37 10 43
41 27z"/>
<path d="M3047 1005 c-27 -7 -51 -16 -54 -18 -4 -5 35 -197 42 -205 5 -5 145
30 145 36 0 4 -4 13 -9 21 -8 13 -26 12 -82 -5 -12 -3 -18 3 -21 21 -5 23 -1
26 33 31 30 5 39 11 39 26 0 17 -5 18 -44 13 -38 -6 -44 -4 -48 13 -5 18 1 22
44 32 36 9 48 16 44 27 -3 8 -6 17 -6 19 0 7 -33 3 -83 -11z"/>
<path d="M2176 958 c-14 -61 -27 -179 -21 -188 3 -5 14 -10 24 -10 14 0 20 13
27 68 l9 67 29 -72 c22 -56 34 -73 53 -78 14 -3 27 -4 30 -2 4 5 32 180 33
205 0 6 -11 12 -25 12 -22 0 -25 -5 -31 -60 -4 -33 -10 -60 -13 -60 -4 0 -18
30 -31 68 -22 58 -29 67 -52 70 -22 3 -28 -2 -32 -20z"/>
<path d="M2708 953 c-42 -4 -48 -7 -48 -27 0 -19 4 -22 30 -18 30 4 30 4 30
-44 0 -27 3 -66 6 -86 5 -31 11 -38 29 -38 22 0 23 2 18 84 l-6 83 27 7 c17 4
26 13 26 26 0 21 -1 21 -112 13z"/>
<path d="M2540 840 l0 -110 25 0 25 0 0 110 0 110 -25 0 -25 0 0 -110z"/>
</g>
</svg>
