<?xml version="1.0" standalone="no"?>
<!DOCTYPE svg PUBLIC "-//W3C//DTD SVG 20010904//EN"
 "http://www.w3.org/TR/2001/REC-SVG-20010904/DTD/svg10.dtd">
<svg version="1.0" xmlns="http://www.w3.org/2000/svg"
 width="500.000000pt" height="500.000000pt" viewBox="0 0 500.000000 500.000000"
 preserveAspectRatio="xMidYMid meet">

<g transform="translate(0.000000,500.000000) scale(0.100000,-0.100000)"
fill="#000000" stroke="none">
<path d="M2285 4009 c-480 -68 -915 -377 -1139 -810 -192 -369 -224 -786 -90
-1188 149 -449 516 -815 964 -961 162 -53 296 -74 475 -74 282 1 515 61 751
195 384 219 647 581 746 1026 32 143 31 442 -1 593 -64 302 -191 546 -395 757
-238 248 -516 397 -841 453 -125 21 -353 26 -470 9z m340 -49 c502 -47 940
-340 1169 -780 247 -475 222 -1038 -67 -1478 -231 -353 -578 -581 -992 -652
-628 -107 -1267 221 -1549 795 -113 229 -149 387 -150 655 -1 204 11 288 64
451 104 319 329 607 616 791 179 114 419 195 644 217 124 12 144 12 265 1z"/>
<path d="M2470 3700 l0 -110 25 0 25 0 0 110 0 110 -25 0 -25 0 0 -110z"/>
<path d="M2594 3797 c-8 -23 4 -37 32 -37 23 0 24 -3 19 -32 -22 -135 -23
-148 -3 -148 10 0 21 -1 25 -2 4 -2 11 22 15 52 17 121 16 120 48 120 23 0 30
5 30 19 0 15 -10 20 -47 25 -27 4 -63 10 -80 13 -24 4 -34 1 -39 -10z"/>
<path d="M2253 3792 c-13 -2 -23 -4 -23 -5 0 -1 7 -27 15 -57 22 -84 19 -86
-36 -26 -35 39 -59 56 -75 56 -41 0 -41 -8 7 -192 8 -30 13 -35 30 -31 22 6
22 27 2 113 -5 21 3 17 49 -27 50 -50 89 -66 102 -44 6 9 -31 187 -43 206 -3
6 -16 9 -28 7z"/>
<path d="M2900 3630 c-23 -56 -41 -102 -39 -103 2 -2 33 -15 68 -30 50 -21 67
-24 73 -15 14 22 9 28 -37 48 -41 18 -45 22 -35 40 13 24 12 24 55 6 18 -8 36
-12 39 -8 15 14 3 33 -29 46 -37 16 -40 22 -26 45 8 13 15 12 49 -3 41 -18 62
-16 62 8 0 12 -107 66 -129 66 -4 0 -27 -45 -51 -100z"/>
<path d="M1920 3677 c-25 -12 -46 -22 -48 -23 -2 -1 87 -196 93 -202 2 -2 12
1 24 7 19 11 19 13 5 47 -18 42 -12 54 19 35 12 -8 31 -20 42 -27 14 -8 28 -9
44 -3 l25 10 -37 26 c-34 24 -36 29 -31 64 5 32 2 42 -19 63 -31 31 -57 32
-117 3z m85 -51 c0 -10 -10 -25 -22 -33 -21 -14 -23 -13 -35 12 -10 22 -9 28
3 36 23 15 54 6 54 -15z"/>
<path d="M3125 3539 c-105 -79 -104 -78 -81 -95 17 -12 22 -12 38 3 18 16 21
16 46 0 21 -12 26 -23 25 -46 -3 -30 22 -61 36 -45 5 5 20 56 34 114 24 97 25
106 10 118 -9 6 -19 12 -22 12 -3 0 -42 -28 -86 -61z m59 -43 c-7 -28 -12 -31
-34 -16 -13 9 -11 13 10 29 30 23 33 22 24 -13z"/>
<path d="M1721 3556 c-10 -11 -5 -38 20 -123 18 -59 34 -110 36 -112 2 -2 12
4 22 13 15 14 18 23 11 42 -8 20 -5 27 21 45 28 20 31 20 49 4 15 -14 21 -14
39 -3 12 7 21 15 21 18 -1 7 -188 130 -199 130 -5 0 -14 -6 -20 -14z m93 -85
c3 -5 -1 -14 -9 -21 -12 -10 -16 -8 -25 15 -5 14 -10 28 -10 31 0 7 38 -14 44
-25z"/>
<path d="M3332 3444 c-26 -18 -30 -70 -7 -100 23 -30 19 -56 -7 -52 -16 2 -24
11 -26 28 -5 34 -33 65 -44 48 -30 -48 19 -128 78 -128 55 0 83 61 49 106 -19
25 -19 64 -1 64 18 0 31 -20 28 -41 -1 -8 6 -23 17 -33 20 -18 21 -18 30 8 13
33 1 67 -35 95 -32 25 -52 26 -82 5z"/>
<path d="M1547 3400 c-26 -29 -47 -56 -47 -60 0 -5 35 -40 77 -79 l77 -71 53
52 c47 46 51 54 38 67 -13 13 -19 11 -50 -19 -33 -32 -36 -33 -52 -17 -16 16
-15 18 10 45 32 33 33 38 10 46 -10 4 -26 -3 -44 -20 -24 -23 -31 -25 -44 -14
-13 11 -11 17 16 52 28 35 30 41 17 54 -13 14 -20 9 -61 -36z"/>
<path d="M2365 3384 c-287 -46 -531 -227 -660 -489 -78 -159 -89 -209 -89
-395 1 -139 3 -164 28 -245 94 -312 344 -548 653 -619 104 -23 317 -22 415 3
322 83 563 323 649 648 28 103 30 304 4 411 -50 214 -176 404 -352 528 -73 53
-205 116 -288 139 -60 16 -298 29 -360 19z m345 -76 c301 -75 544 -332 606
-641 23 -111 15 -304 -16 -402 -96 -300 -332 -518 -634 -582 -89 -19 -303 -12
-391 12 -154 42 -326 157 -429 286 -68 86 -129 208 -157 314 -30 113 -30 299
0 410 121 452 569 717 1021 603z"/>
<path d="M2509 2870 c-141 -22 -289 -102 -352 -188 -82 -112 -107 -201 -107
-377 0 -140 14 -183 23 -72 25 292 196 479 486 532 115 21 142 18 51 -6 -121
-31 -195 -73 -286 -164 -64 -64 -89 -97 -122 -165 -23 -47 -44 -97 -48 -112
-6 -26 -3 -28 63 -49 97 -31 216 -36 290 -13 47 14 71 30 124 83 37 38 82 96
104 136 83 152 132 230 174 277 23 26 41 54 38 61 -14 38 -314 77 -438 57z"/>
<path d="M3485 3240 c-21 -38 -41 -70 -44 -70 -3 -1 -16 -9 -29 -20 -19 -16
-21 -23 -12 -40 l11 -21 35 22 c20 12 68 26 115 33 l81 11 -18 22 c-17 20 -24
21 -64 13 -25 -4 -47 -7 -48 -5 -2 2 8 23 22 47 18 32 22 47 15 61 -6 9 -14
17 -18 17 -4 0 -25 -31 -46 -70z"/>
<path d="M1382 3188 c-7 -7 -12 -15 -12 -20 0 -7 173 -128 183 -128 2 0 21 27
42 61 30 49 35 63 24 70 -22 14 -26 11 -49 -27 -26 -40 -27 -40 -110 16 -67
46 -62 44 -78 28z"/>
<path d="M1681 1618 l-39 -62 34 -24 c21 -14 42 -21 52 -17 13 5 11 10 -13 29
l-28 23 31 46 c37 53 37 53 17 61 -10 4 -27 -14 -54 -56z"/>
<path d="M3357 1673 c-4 -3 -7 -22 -7 -40 l0 -34 -30 18 c-21 12 -33 14 -40 7
-8 -8 3 -20 39 -43 27 -18 52 -38 55 -46 7 -19 36 -20 36 -2 0 7 -5 18 -11 24
-5 5 -13 36 -16 67 -6 53 -11 64 -26 49z"/>
<path d="M1810 1550 c-16 -33 -30 -64 -30 -70 0 -5 19 -19 41 -31 34 -17 43
-18 50 -7 6 9 0 17 -21 27 -48 23 -27 46 23 26 12 -5 17 -2 17 8 0 9 -9 19
-20 22 -11 3 -20 13 -20 22 0 11 6 14 23 9 66 -21 74 2 12 32 l-45 22 -30 -60z"/>
<path d="M3166 1564 c-36 -36 -12 -74 47 -74 26 0 37 -4 34 -12 -2 -7 -16 -13
-32 -13 -36 0 -44 -22 -11 -31 35 -8 76 19 76 51 0 30 -25 44 -69 37 -26 -3
-32 -1 -29 9 3 8 16 14 31 14 33 1 46 13 27 25 -23 15 -57 12 -74 -6z"/>
<path d="M1967 1476 c-26 -30 -47 -59 -47 -65 0 -14 23 -14 37 0 16 16 53 1
53 -21 0 -10 7 -21 15 -24 14 -5 15 6 13 76 -2 45 -8 83 -13 85 -6 2 -32 -21
-58 -51z m39 -33 c-11 -11 -17 4 -9 23 7 18 8 18 11 1 2 -10 1 -21 -2 -24z"/>
<path d="M3033 1513 c-9 -3 -13 -30 -13 -85 0 -59 3 -79 13 -76 6 3 13 14 15
25 4 26 43 38 58 19 6 -9 15 -11 24 -6 11 7 8 15 -13 42 -52 66 -72 86 -84 81z
m37 -74 c0 -5 -4 -9 -10 -9 -5 0 -10 7 -10 16 0 8 5 12 10 9 6 -3 10 -10 10
-16z"/>
<path d="M2125 1478 c-2 -7 -9 -33 -15 -58 -6 -25 -13 -53 -16 -62 -4 -13 0
-18 15 -18 15 0 21 6 21 21 0 28 23 19 30 -12 3 -13 14 -25 23 -27 14 -3 16 2
11 25 -4 20 -1 33 10 42 25 21 21 70 -6 80 -56 21 -68 22 -73 9z m63 -51 c2
-12 -3 -17 -17 -17 -15 0 -21 6 -21 21 0 25 33 22 38 -4z"/>
<path d="M2878 1468 c-41 -11 -43 -15 -29 -68 5 -19 12 -47 15 -61 6 -26 7
-26 56 -16 56 11 63 32 10 32 -40 0 -51 22 -16 31 38 9 34 35 -4 28 -23 -5
-30 -3 -30 9 0 9 12 18 30 22 17 4 30 13 30 21 0 16 -9 16 -62 2z"/>
<path d="M2277 1443 c-3 -5 -8 -38 -12 -75 -6 -58 -5 -68 8 -68 10 0 18 14 23
43 l7 42 20 -47 c13 -32 25 -48 38 -48 20 0 25 13 35 93 5 47 4 57 -9 57 -15
0 -26 -27 -28 -70 0 -20 -6 -14 -25 28 -21 47 -45 65 -57 45z"/>
<path d="M2643 1433 c-35 -5 -47 -33 -14 -33 15 0 20 -11 25 -61 9 -80 31 -75
31 7 0 48 4 59 18 62 9 2 17 10 17 18 0 14 -11 15 -77 7z"/>
<path d="M2530 1355 c0 -60 3 -75 15 -75 12 0 15 15 15 75 0 60 -3 75 -15 75
-12 0 -15 -15 -15 -75z"/>
</g>
</svg>
